# xmcd
#
# Track frame offsets: 
#        150
#        18451
#        40202
#        60135
#        75736
#        94037
#        119313
#        134464
#        148865
#        171666
#        193267
#        235841
#
# Disc length: 4209 seconds
#
# Revision: 0
# Processed by: cddbd v1.5.2PL0 Copyright (c) Steve Scherf et al.
# Submitted via: ExactAudioCopy v0.99pb3
#
DISCID=a6106f0c
DTITLE=Long, Dee, And The Short Notice - Long Live And Prosper
DYEAR=2005
DGENRE=Pop/Rock
TTITLE0=Meaning Of Life
TTITLE1=Mad Magazine
TTITLE2=Outside
TTITLE3=You Are
TTITLE4=Chromosome Syndrome
TTITLE5=Collecting Icons
TTITLE6=Older
TTITLE7=Everybody Took A Holiday
TTITLE8=Blue Jay Way
TTITLE9=It's Good To Be Back Home
TTITLE10=Little Neutrino
TTITLE11=Data
EXTD=
EXTT0=
EXTT1=
EXTT2=
EXTT3=
EXTT4=
EXTT5=
EXTT6=
EXTT7=
EXTT8=
EXTT9=
EXTT10=
EXTT11=
PLAYORDER=
